<?xml version="1.0" standalone="no"?>
<!DOCTYPE svg PUBLIC "-//W3C//DTD SVG 20010904//EN"
 "http://www.w3.org/TR/2001/REC-SVG-20010904/DTD/svg10.dtd">
<svg version="1.0" xmlns="http://www.w3.org/2000/svg"
 width="676.000000pt" height="676.000000pt" viewBox="0 0 676.000000 676.000000"
 preserveAspectRatio="xMidYMid meet">
<metadata>
Created by potrace 1.11, written by Peter Selinger 2001-2013
</metadata>
<g transform="translate(0.000000,676.000000) scale(0.100000,-0.100000)"
fill="#000000" stroke="none">
<path d="M0 3380 l0 -3380 3380 0 3380 0 0 3380 0 3380 -3380 0 -3380 0 0
-3380z m2565 1479 l275 -231 0 -881 c0 -1238 1 -1497 7 -1535 l5 -32 789 0
c434 0 789 3 789 6 0 3 -68 77 -151 165 l-152 159 -331 2 -331 3 -3 153 c-2
118 0 152 10 152 101 1 464 1 600 1 l177 -1 282 -297 c155 -164 290 -305 300
-315 17 -14 19 -33 19 -177 l0 -161 -1064 0 -1064 0 -86 93 -86 92 0 1252 0
1251 -140 116 c-88 73 -142 112 -145 104 -3 -7 -6 -553 -8 -1213 l-2 -1200
-142 150 -143 150 0 1049 0 1049 156 163 c86 90 158 164 160 164 2 0 127 -104
279 -231z"/>
</g>
</svg>
