<?xml version="1.0" standalone="no"?>
<!DOCTYPE svg PUBLIC "-//W3C//DTD SVG 20010904//EN"
 "http://www.w3.org/TR/2001/REC-SVG-20010904/DTD/svg10.dtd">
<svg version="1.0" xmlns="http://www.w3.org/2000/svg"
 width="600.000000pt" height="600.000000pt" viewBox="0 0 600.000000 600.000000"
 preserveAspectRatio="xMidYMid meet">
<metadata>
Created by potrace 1.11, written by Peter Selinger 2001-2013
</metadata>
<g transform="translate(0.000000,600.000000) scale(0.100000,-0.100000)"
fill="#000000" stroke="none">
<path d="M2798 5995 c-1 -1 -40 -6 -86 -9 -45 -4 -88 -9 -95 -11 -6 -2 -36 -7
-65 -9 -29 -3 -63 -8 -75 -11 -12 -3 -35 -7 -52 -10 -220 -41 -472 -123 -690
-225 -99 -46 -304 -157 -315 -170 -3 -3 -25 -18 -50 -32 -222 -129 -596 -477
-763 -708 -9 -14 -40 -56 -68 -95 -47 -66 -75 -111 -142 -223 -36 -63 -152
-299 -178 -365 -70 -175 -128 -368 -159 -532 -6 -27 -12 -61 -15 -75 -3 -14
-8 -45 -11 -70 -3 -25 -7 -56 -10 -70 -19 -111 -26 -530 -11 -675 25 -231 107
-593 166 -730 5 -11 17 -40 26 -65 43 -117 144 -322 218 -445 306 -510 745
-910 1280 -1169 316 -153 633 -241 1015 -283 135 -15 570 -8 668 11 10 2 54 9
97 16 104 15 129 20 149 26 9 3 25 6 35 8 122 25 366 105 523 172 574 248
1063 678 1389 1222 55 91 191 360 191 377 0 4 7 21 15 38 58 125 157 484 178
652 3 22 11 81 18 130 20 146 16 623 -6 730 -3 11 -6 34 -9 50 -27 186 -95
459 -146 580 -4 11 -18 47 -31 80 -62 165 -196 417 -311 586 -238 350 -603
691 -968 903 -78 45 -343 173 -405 196 -204 74 -387 129 -485 146 -14 3 -61
11 -105 19 -44 8 -107 17 -140 21 -33 4 -69 9 -80 11 -23 5 -491 13 -497 8z"/>
</g>
</svg>
